<svg width="217" height="259" viewBox="0 0 217 259" fill="none" xmlns="http://www.w3.org/2000/svg">
<rect width="217" height="259" fill="white"/>
<path d="M11 7H13C13.5304 7 14.0391 7.21071 14.4142 7.58579C14.7893 7.96086 15 8.46957 15 9V10H13V9H11V15H13V14H15V15C15 15.5304 14.7893 16.0391 14.4142 16.4142C14.0391 16.7893 13.5304 17 13 17H11C10.4696 17 9.96086 16.7893 9.58579 16.4142C9.21071 16.0391 9 15.5304 9 15V9C9 8.46957 9.21071 7.96086 9.58579 7.58579C9.96086 7.21071 10.4696 7 11 7ZM12 2C13.3132 2 14.6136 2.25866 15.8268 2.7612C17.0401 3.26375 18.1425 4.00035 19.0711 4.92893C19.9997 5.85752 20.7362 6.95991 21.2388 8.17317C21.7413 9.38642 22 10.6868 22 12C22 14.6522 20.9464 17.1957 19.0711 19.0711C17.1957 20.9464 14.6522 22 12 22C10.6868 22 9.38642 21.7413 8.17317 21.2388C6.95991 20.7362 5.85752 19.9997 4.92893 19.0711C3.05357 17.1957 2 14.6522 2 12C2 9.34784 3.05357 6.8043 4.92893 4.92893C6.8043 3.05357 9.34784 2 12 2ZM12 4C9.87827 4 7.84344 4.84285 6.34315 6.34315C4.84285 7.84344 4 9.87827 4 12C4 14.1217 4.84285 16.1566 6.34315 17.6569C7.84344 19.1571 9.87827 20 12 20C14.1217 20 16.1566 19.1571 17.6569 17.6569C19.1571 16.1566 20 14.1217 20 12C20 9.87827 19.1571 7.84344 17.6569 6.34315C16.1566 4.84285 14.1217 4 12 4Z" fill="#FFF84F"/>
<path d="M139.265 191.746C139.751 192.019 140.306 192.128 140.853 192.059C141.401 191.99 141.915 191.746 142.326 191.36C142.737 190.974 143.025 190.465 143.151 189.902C143.277 189.339 143.235 188.748 143.031 188.211C143.085 187.925 143.125 187.72 143.18 187.434C144.232 186.403 145.553 185.726 146.975 185.489C148.396 185.251 149.853 185.465 151.158 186.102C152.463 186.739 153.557 187.77 154.3 189.063C155.043 190.357 155.401 191.854 155.327 193.362C154.994 201.868 155.395 211.046 150.006 217.904C174.6 196.818 185.813 160.899 178.303 128.592C174.617 123.204 172.898 116.047 174.551 109.561C176.625 111.677 180.668 111.109 180.05 107.445C179.718 105.997 179.375 104.554 179.044 103.106C193.209 97.3066 196.907 119.405 180.128 128.402C181.489 134.544 182.235 140.818 182.352 147.123C184.247 141.438 187.4 136.306 191.553 132.149C195.575 128.351 200.892 126.117 205.839 123.568C211.858 120.459 218.538 126.623 216.168 133.204C212.161 132.666 209.326 137.691 212.962 140.392C206.576 151.645 194.33 158.798 181.888 158.912C180.63 171.752 176.777 184.164 170.588 195.32C178.536 182.639 193.918 186.29 206.073 185.75C206.88 185.643 207.699 185.785 208.43 186.158C209.161 186.531 209.772 187.12 210.19 187.851C210.608 188.583 210.814 189.426 210.782 190.279C210.751 191.131 210.484 191.955 210.014 192.651C208.415 192.553 206.81 192.621 205.224 192.855C204.478 192.971 203.784 193.327 203.238 193.872C202.692 194.418 202.32 195.128 202.174 195.904C202.027 196.68 202.113 197.485 202.419 198.208C202.726 198.931 203.238 199.537 203.885 199.943C193.222 210.2 176.698 212.404 163.73 205.86C159.896 210.927 155.57 215.562 150.823 219.691L131.542 210.049C131.575 209.789 131.619 209.526 131.659 209.27C133.39 210.28 135.232 211.064 137.145 211.605C135.088 203.378 132.796 198.56 139.264 191.746H139.265Z" fill="#F2F2F2"/>
<path d="M105.191 172.279C104.84 172.726 104.367 173.048 103.837 173.201C103.306 173.354 102.744 173.332 102.226 173.136C101.709 172.941 101.26 172.582 100.942 172.108C100.624 171.634 100.451 171.068 100.447 170.487C100.294 170.243 100.184 170.068 100.031 169.824C98.6905 169.283 97.2276 169.179 95.8301 169.523C94.4326 169.867 93.1642 170.645 92.1876 171.756C91.2109 172.867 90.5704 174.261 90.3482 175.759C90.126 177.258 90.3323 178.792 90.9405 180.166C94.2966 187.944 97.2165 196.64 104.649 200.876C74.3858 191.04 51.1589 162.089 46.5142 129.057C47.9857 122.581 47.0076 115.241 43.1571 109.865C42.0009 112.658 38.0646 113.736 37.3219 110.083C37.109 108.605 36.9083 107.126 36.6953 105.648C21.5389 105.884 26.0444 127.906 44.7606 129.605C45.7052 135.859 47.2657 141.991 49.4168 147.901C45.6305 143.367 40.8797 139.847 35.5552 137.632C30.4811 135.697 24.7713 135.733 19.2907 135.328C12.6189 134.829 8.66046 143.217 13.2072 148.396C16.7139 146.303 21.1326 149.85 18.7433 153.806C28.673 161.734 42.5426 163.52 54.0706 158.681C59.8344 170.123 67.8396 180.136 77.5526 188.051C65.6696 179.417 52.7767 188.925 41.3599 193.254C40.577 193.475 39.872 193.933 39.3309 194.57C38.7898 195.208 38.4359 195.998 38.3124 196.845C38.1889 197.691 38.3012 198.557 38.6356 199.338C38.9699 200.118 39.5119 200.778 40.1954 201.239C41.6365 200.512 43.1425 199.937 44.691 199.525C45.4214 199.336 46.1891 199.391 46.8889 199.682C47.5888 199.972 48.1864 200.485 48.6 201.148C49.0135 201.812 49.2228 202.595 49.199 203.389C49.1752 204.183 48.9195 204.95 48.4671 205.585C61.9883 210.886 78.0341 206.37 87.6616 195.128C93.0177 198.317 98.6729 200.909 104.536 202.863L118.881 186.232C118.757 186.004 118.623 185.776 118.494 185.554C117.258 187.182 115.838 188.643 114.266 189.906C113.216 181.437 113.605 176.045 105.192 172.278L105.191 172.279Z" fill="#F2F2F2"/>
<path d="M109.26 101.964C109.805 101.905 110.321 101.671 110.736 101.292C111.151 100.913 111.447 100.408 111.582 99.8457C111.717 99.2831 111.686 98.6901 111.492 98.147C111.299 97.6039 110.952 97.1369 110.5 96.8093C110.394 96.539 110.318 96.3449 110.212 96.0746C110.536 94.5988 111.269 93.2591 112.316 92.2272C113.364 91.1953 114.679 90.5182 116.092 90.2827C117.506 90.0472 118.953 90.2641 120.25 90.9055C121.546 91.5469 122.632 92.5837 123.368 93.8828C127.587 101.163 132.765 108.572 131.941 117.445C141.097 85.4507 131.376 48.9534 108.113 26.4543C102.226 24.1299 97.0263 19.1776 94.9639 12.8057C97.7931 13.3511 100.829 10.5049 98.3839 7.8163C97.3455 6.80495 96.3 5.80402 95.2617 4.7926C103.887 -8.3507 118.612 7.88335 109.519 25.2243C113.887 29.5409 117.816 34.3292 121.244 39.5112C119.804 33.6647 119.695 27.5398 120.927 21.6402C122.238 16.1164 125.446 11.1353 128.182 6.10953C131.506 -0.0128905 140.275 1.20054 141.796 8.0724C138.205 9.97606 138.52 15.8253 142.947 15.9403C143.622 29.061 137.295 42.2052 127.088 49.6019C132.832 61.0348 136.21 73.6331 136.995 86.557C136.856 71.3311 151.477 65.3444 161.223 57.7602C161.832 57.198 162.583 56.8357 163.383 56.7174C164.183 56.5992 164.999 56.7302 165.73 57.0944C166.461 57.4586 167.077 58.0403 167.501 58.7685C167.925 59.4967 168.14 60.3399 168.12 61.1953C166.748 62.0519 165.46 63.0505 164.275 64.1767C163.721 64.7112 163.336 65.4141 163.174 66.1892C163.011 66.9643 163.079 67.7736 163.369 68.5062C163.658 69.2387 164.154 69.8587 164.788 70.281C165.423 70.7034 166.166 70.9075 166.915 70.8653C163.533 85.666 151.062 97.1997 136.904 99.3599C136.417 105.83 135.296 112.23 133.559 118.455L112.555 121.74C112.446 121.504 112.342 121.26 112.24 121.023C114.202 120.849 116.137 120.42 118.001 119.748C111.958 114.103 107.521 111.435 109.259 101.964L109.26 101.964Z" fill="#F2F2F2"/>
<path d="M130.093 95.1528C120.432 95.1528 115.193 93.9019 113.363 91.2316C111.748 88.8756 112.831 85.767 114.084 82.1676C114.985 79.5805 116.006 76.6483 116.006 73.7462C116.006 59.6311 122.76 52.474 136.08 52.474C142.707 52.474 149.823 56.2047 155.115 62.4537C159.926 68.1347 162.323 74.9339 161.691 81.1077C161.172 86.171 158.948 89.5007 154.691 91.5872L154.442 91.7092L154.372 91.4284C154.004 89.9752 153.382 88.6081 152.538 87.3985C152.456 89.2973 152.004 91.1575 151.211 92.8625L151.166 92.9596L151.067 92.9895C146.25 94.4436 140.532 94.8376 136.089 95.0181C133.926 95.1074 131.928 95.1523 130.093 95.1528Z" fill="#2F2E41"/>
<path d="M132.569 114.291C132.203 113.156 131.587 112.13 130.77 111.297C129.954 110.464 128.961 109.849 127.874 109.503C126.788 109.156 125.638 109.088 124.522 109.305C123.405 109.521 122.354 110.016 121.454 110.747L90.0781 130.555L80.2599 105.259C81.0893 103.975 81.5121 102.445 81.4676 100.891C81.4231 99.3371 80.9135 97.8377 80.0121 96.6082C79.1107 95.3787 77.8636 94.4822 76.4499 94.0473C75.0361 93.6124 73.5282 93.6615 72.1424 94.1874C70.7567 94.7134 69.5643 95.6893 68.7363 96.9751C67.9083 98.2608 67.4872 99.7905 67.5333 101.345C67.5795 102.899 68.0906 104.398 68.9934 105.626C69.8961 106.854 71.1441 107.749 72.5584 108.183C73.1635 115.477 76.5265 148.081 88.226 146.896C98.0599 145.899 122.482 128.726 130.067 122.771C131.28 121.819 132.177 120.485 132.626 118.961C133.076 117.438 133.056 115.802 132.569 114.291Z" fill="#FFB6B6"/>
<path d="M156.866 258.872H129.396L124.789 234.867L123.295 258.872H97.7776C97.7874 240.02 98.7191 221.182 100.569 202.432L100.885 201.297L101.385 199.48L101.701 198.34L106.982 179.229L107.399 177.712H139.196C141.026 179.523 142.714 181.488 144.243 183.586C144.761 184.282 145.301 185.036 145.856 185.847C146.241 186.422 146.64 187.026 147.039 187.659C150.582 193.218 153.23 199.355 154.877 205.823V205.828C155.157 206.934 155.404 208.066 155.619 209.224V209.229C155.812 210.258 155.982 211.301 156.114 212.369C156.215 213.147 156.302 213.934 156.367 214.731C156.749 219.147 156.615 223.596 155.968 227.978L156.866 258.872Z" fill="#2F2E41"/>
<path d="M11.0571 39.1644C12.8389 38.4352 13.8944 36.7819 13.4146 35.4715C12.9348 34.1611 11.1013 33.6899 9.31946 34.4191C7.53761 35.1483 6.48212 36.8016 6.96194 38.112C7.44177 39.4224 9.27522 39.8936 11.0571 39.1644Z" fill="#E6E6E6"/>
<path d="M33.4919 36.1219C35.2737 35.3928 36.3292 33.7394 35.8494 32.429C35.3696 31.1186 33.5361 30.6475 31.7543 31.3766C29.9724 32.1058 28.9169 33.7592 29.3968 35.0696C29.8766 36.3799 31.71 36.8511 33.4919 36.1219Z" fill="#3F3D56"/>
<path d="M9.11128 59.3989C10.8931 58.6697 11.9486 57.0164 11.4688 55.706C10.989 54.3956 9.15552 53.9244 7.37367 54.6536C5.59182 55.3828 4.53632 57.0361 5.01614 58.3465C5.49597 59.6569 7.32943 60.1281 9.11128 59.3989Z" fill="#F24E1E"/>
<path d="M2.62076 68.3245C3.43822 68.1199 3.87543 66.9471 3.5973 65.7049C3.31917 64.4626 2.431 63.6214 1.61355 63.8259C0.796098 64.0305 0.358896 65.2033 0.637029 66.4456C0.915163 67.6878 1.80331 68.529 2.62076 68.3245Z" fill="#E6E6E6"/>
<path d="M2.48735 83.4358C3.3048 83.2313 3.742 82.0584 3.46387 80.8162C3.18573 79.5739 2.29758 78.7327 1.48013 78.9373C0.662676 79.1418 0.225473 80.3147 0.503607 81.5569C0.781742 82.7991 1.66989 83.6404 2.48735 83.4358Z" fill="#3F3D56"/>
<path d="M22.1779 52.1368C22.9953 51.9323 23.4325 50.7594 23.1544 49.5172C22.8763 48.275 21.9881 47.4338 21.1707 47.6383C20.3532 47.8429 19.916 49.0157 20.1942 50.2579C20.4723 51.5001 21.3604 52.3414 22.1779 52.1368Z" fill="#E6E6E6"/>
<path d="M10.362 49.1035C11.1794 48.899 11.6166 47.7262 11.3385 46.4839C11.0604 45.2417 10.1722 44.4004 9.35476 44.605C8.53731 44.8095 8.10011 45.9824 8.37824 47.2246C8.65638 48.4669 9.54452 49.3081 10.362 49.1035Z" fill="#F24E1E"/>
<path d="M22.886 35.1886C23.7035 34.9841 24.1407 33.8112 23.8625 32.569C23.5844 31.3267 22.6963 30.4855 21.8788 30.6901C21.0614 30.8946 20.6242 32.0675 20.9023 33.3097C21.1804 34.5519 22.0686 35.3931 22.886 35.1886Z" fill="#3F3D56"/>
<path d="M28.7106 139.776C29.5721 138.706 29.0911 136.778 27.6361 135.468C26.1811 134.159 24.3032 133.965 23.4417 135.035C22.5801 136.105 23.0612 138.034 24.5162 139.343C25.9711 140.652 27.849 140.846 28.7106 139.776Z" fill="#E6E6E6"/>
<path d="M15.4974 120.369C16.359 119.299 15.8779 117.371 14.423 116.061C12.968 114.752 11.0901 114.558 10.2286 115.628C9.367 116.698 9.84807 118.627 11.303 119.936C12.758 121.245 14.6359 121.439 15.4974 120.369Z" fill="#3F3D56"/>
<path d="M46.4689 131.951C47.3304 130.881 46.8494 128.952 45.3944 127.643C43.9394 126.333 42.0615 126.139 41.2 127.209C40.3384 128.279 40.8195 130.208 42.2745 131.517C43.7294 132.827 45.6073 133.021 46.4689 131.951Z" fill="#F24E1E"/>
<path d="M55.2908 132.165C56.1917 131.315 56.4686 130.089 55.9092 129.426C55.3498 128.764 54.166 128.916 53.2651 129.766C52.3642 130.616 52.0874 131.842 52.6467 132.504C53.2061 133.167 54.3899 133.015 55.2908 132.165Z" fill="#E6E6E6"/>
<path d="M67.9245 125.094C68.8254 124.244 69.1022 123.017 68.5429 122.355C67.9835 121.692 66.7997 121.844 65.8988 122.694C64.9979 123.545 64.721 124.771 65.2804 125.433C65.8398 126.096 67.0236 125.944 67.9245 125.094Z" fill="#3F3D56"/>
<path d="M32.5135 121.692C33.4144 120.842 33.6912 119.616 33.1319 118.953C32.5725 118.291 31.3887 118.443 30.4878 119.293C29.5869 120.143 29.31 121.369 29.8694 122.032C30.4288 122.694 31.6126 122.542 32.5135 121.692Z" fill="#E6E6E6"/>
<path d="M35.6162 134.121C36.5171 133.271 36.794 132.044 36.2346 131.382C35.6753 130.719 34.4915 130.871 33.5906 131.721C32.6897 132.571 32.4128 133.798 32.9722 134.46C33.5316 135.123 34.7153 134.971 35.6162 134.121Z" fill="#F24E1E"/>
<path d="M18.0782 129.104C18.9791 128.254 19.2559 127.027 18.6965 126.365C18.1372 125.702 16.9534 125.854 16.0525 126.704C15.1516 127.554 14.8747 128.781 15.4341 129.443C15.9935 130.106 17.1773 129.954 18.0782 129.104Z" fill="#3F3D56"/>
<path d="M117.476 15.3051C118.669 14.685 118.952 12.7129 118.109 10.9004C117.266 9.08787 115.615 8.12123 114.423 8.74134C113.23 9.36145 112.947 11.3335 113.79 13.146C114.633 14.9586 116.284 15.9252 117.476 15.3051Z" fill="#E6E6E6"/>
<path d="M122.309 38.6643C123.502 38.0442 123.785 36.0721 122.942 34.2595C122.099 32.447 120.448 31.4804 119.255 32.1005C118.063 32.7206 117.779 34.6926 118.623 36.5052C119.466 38.3177 121.116 39.2844 122.309 38.6643Z" fill="#3F3D56"/>
<path d="M98.2389 15.0291C99.4316 14.409 99.7149 12.437 98.8717 10.6244C98.0285 8.81188 96.378 7.84521 95.1853 8.46532C93.9926 9.08543 93.7092 11.0575 94.5524 12.87C95.3957 14.6826 97.0461 15.6492 98.2389 15.0291Z" fill="#F24E1E"/>
<path d="M88.1272 7.61609C89.2734 7.21435 89.9883 6.20536 89.7239 5.36244C89.4595 4.51952 88.3161 4.16186 87.1699 4.5636C86.0237 4.96534 85.3088 5.97434 85.5732 6.81726C85.8375 7.66018 86.981 8.01783 88.1272 7.61609Z" fill="#E6E6E6"/>
<path d="M73.8761 8.79944C75.0223 8.3977 75.7372 7.3887 75.4728 6.54578C75.2084 5.70287 74.0649 5.34522 72.9187 5.74696C71.7725 6.1487 71.0577 7.15768 71.3221 8.0006C71.5864 8.84352 72.7299 9.20117 73.8761 8.79944Z" fill="#3F3D56"/>
<path d="M105.094 26.7927C106.241 26.391 106.956 25.382 106.691 24.5391C106.427 23.6961 105.283 23.3385 104.137 23.7402C102.991 24.142 102.276 25.151 102.54 25.9939C102.805 26.8368 103.948 27.1945 105.094 26.7927Z" fill="#E6E6E6"/>
<path d="M106.918 14.084C108.064 13.6822 108.779 12.6732 108.514 11.8303C108.25 10.9874 107.106 10.6298 105.96 11.0315C104.814 11.4332 104.099 12.4422 104.364 13.2852C104.628 14.1281 105.771 14.4857 106.918 14.084Z" fill="#F24E1E"/>
<path d="M121.127 26.0535C122.273 25.6517 122.988 24.6427 122.724 23.7998C122.459 22.9569 121.316 22.5992 120.17 23.001C119.023 23.4027 118.309 24.4117 118.573 25.2546C118.837 26.0976 119.981 26.4552 121.127 26.0535Z" fill="#3F3D56"/>
<path d="M125.299 98.7763L140.373 97.9514L147.374 109.704C147.374 109.704 160.548 112.044 159.635 128.534C158.721 145.024 143.607 159.495 143.607 159.495L144.253 168.082L143.131 171.488L143.275 173.401L144.805 175.426L144.963 177.521L143.607 180.835L145.451 184.009L106.674 180.018L105.256 174.53L107.324 171.584L106.169 167.74L107.906 164.043L108.812 152.301C108.812 152.301 98.9025 136.486 110.278 124.574L114.844 116.329L119.952 109.708L125.299 98.7763Z" fill="#FFC700"/>
<path d="M132.949 95.1528C141.885 95.1528 149.128 87.6349 149.128 78.3611C149.128 69.0873 141.885 61.5695 132.949 61.5695C124.014 61.5695 116.77 69.0873 116.77 78.3611C116.77 87.6349 124.014 95.1528 132.949 95.1528Z" fill="#FFB6B6"/>
<path d="M130.754 77.6615C129.381 77.6615 128.008 77.6194 126.636 77.5353L126.391 77.5203L126.423 77.256C126.625 75.6035 126.511 73.9236 126.089 72.321C125.371 74.1457 124.303 75.7833 122.957 77.1245L122.881 77.2002L122.779 77.1881C119.052 76.7454 115.359 76.014 111.729 74.9994L111.59 74.9608L111.562 74.8081C111.291 73.362 111.151 71.8905 111.143 70.4148C111.143 65.8048 112.682 61.9247 115.476 59.4893C118.518 56.8384 122.878 56.0232 127.758 57.1924H143.362C145.077 57.1945 146.722 57.9355 147.935 59.2529C149.148 60.5703 149.83 62.3564 149.832 64.2194V74.9509L149.662 74.9992C143.49 76.7607 137.136 77.6555 130.754 77.6615Z" fill="#2F2E41"/>
<path d="M21.5432 58.4014C20.8435 58.6733 20.2738 59.2289 19.9593 59.9464C19.6447 60.6639 19.6108 61.4847 19.8652 62.2286L36.7281 111.382C36.984 112.125 37.507 112.73 38.1824 113.064C38.8578 113.399 39.6304 113.435 40.3308 113.164L105.779 87.8262C106.478 87.5544 107.048 86.9987 107.363 86.2813C107.677 85.5638 107.711 84.743 107.457 83.9991L90.5937 34.8461C90.3378 34.1027 89.8148 33.4975 89.1394 33.1633C88.464 32.8291 87.6914 32.7931 86.991 33.0633L21.5432 58.4014Z" fill="#CCCCCC"/>
<path d="M81.8441 94.8528L41.3633 110.352C40.6017 110.643 39.7614 110.604 39.0269 110.245C38.2923 109.885 37.7235 109.234 37.4452 108.435L21.9903 63.8825C21.7137 63.0824 21.7505 62.1996 22.0926 61.4279C22.4348 60.6561 23.0543 60.0585 23.8153 59.7661L86.2122 35.8755C86.9738 35.5849 87.8141 35.6235 88.5487 35.983C89.2832 36.3425 89.8521 36.9934 90.1304 37.7929L97.598 59.3201C99.9856 66.2272 99.6679 73.8474 96.7145 80.5087C93.7611 87.1701 88.4132 92.3287 81.8441 94.8528Z" fill="white"/>
<path d="M52.836 62.8134L43.4824 66.4065C43.3651 66.4516 43.2405 66.4718 43.1158 66.4661C42.9911 66.4605 42.8686 66.4289 42.7554 66.3734C42.6423 66.3178 42.5406 66.2393 42.4562 66.1423C42.3718 66.0453 42.3064 65.9318 42.2636 65.8081C42.2209 65.6845 42.2017 65.5532 42.2071 65.4217C42.2125 65.2902 42.2424 65.1612 42.2951 65.0419C42.3478 64.9226 42.4223 64.8154 42.5143 64.7265C42.6063 64.6375 42.714 64.5686 42.8313 64.5235L52.1849 60.9304C52.4218 60.8394 52.6833 60.8514 52.9119 60.9636C53.1404 61.0758 53.3173 61.2791 53.4037 61.5288C53.49 61.7785 53.4787 62.0541 53.3722 62.2951C53.2658 62.536 53.0729 62.7224 52.836 62.8134H52.836Z" fill="#FFC700"/>
<path d="M75.3296 57.9644L44.2201 69.9028C44.0997 69.9492 43.9718 69.9701 43.8437 69.9644C43.7156 69.9587 43.5899 69.9265 43.4736 69.8696C43.3574 69.8126 43.253 69.7321 43.1663 69.6327C43.0796 69.5332 43.0124 69.4168 42.9685 69.2899C42.9246 69.1631 42.9049 69.0284 42.9105 68.8936C42.916 68.7587 42.9468 68.6263 43.001 68.504C43.0552 68.3817 43.1318 68.2718 43.2263 68.1806C43.3209 68.0895 43.4316 68.0189 43.5521 67.9728L74.6616 56.0344C74.782 55.9882 74.9098 55.9674 75.0377 55.9732C75.1657 55.9791 75.2913 56.0114 75.4075 56.0683C75.5236 56.1253 75.6279 56.2058 75.7145 56.3052C75.8011 56.4046 75.8682 56.521 75.9121 56.6477C75.9559 56.7744 75.9756 56.909 75.9701 57.0438C75.9646 57.1785 75.9339 57.3108 75.8798 57.4331C75.8257 57.5553 75.7493 57.6652 75.6549 57.7564C75.5605 57.8475 75.45 57.9182 75.3296 57.9644Z" fill="#FFC700"/>
<path d="M76.7512 62.8617L46.3015 74.8008C46.1837 74.847 46.0586 74.8678 45.9334 74.862C45.8081 74.8561 45.6851 74.8238 45.5715 74.7669C45.4578 74.7099 45.3557 74.6294 45.271 74.53C45.1863 74.4306 45.1205 74.3142 45.0776 74.1875C45.0347 74.0607 45.0154 73.9261 45.0208 73.7914C45.0262 73.6566 45.0562 73.5243 45.1092 73.4021C45.1621 73.2798 45.2369 73.1699 45.3293 73.0787C45.4217 72.9876 45.5299 72.9169 45.6477 72.8707L76.0974 60.9315C76.3352 60.8386 76.5976 60.8511 76.8269 60.9662C77.0562 61.0813 77.2336 61.2896 77.3202 61.5453C77.4069 61.8011 77.3956 62.0834 77.2889 62.3302C77.1822 62.577 76.9888 62.7681 76.7512 62.8617Z" fill="#FFC700"/>
<path d="M78.8468 67.0599L47.7373 78.9983C47.6169 79.0446 47.489 79.0656 47.3609 79.0599C47.2329 79.0542 47.1071 79.0219 46.9909 78.965C46.8746 78.9081 46.7702 78.8276 46.6835 78.7281C46.5968 78.6287 46.5296 78.5122 46.4857 78.3854C46.4418 78.2585 46.4221 78.1239 46.4277 77.989C46.4333 77.8541 46.464 77.7218 46.5182 77.5994C46.5724 77.4771 46.649 77.3672 46.7436 77.2761C46.8381 77.1849 46.9488 77.1143 47.0693 77.0682L78.1788 65.1298C78.2992 65.0837 78.427 65.0629 78.555 65.0687C78.6829 65.0745 78.8086 65.1068 78.9247 65.1638C79.0408 65.2208 79.1451 65.3012 79.2317 65.4006C79.3183 65.5 79.3854 65.6164 79.4293 65.7432C79.4731 65.8699 79.4929 66.0045 79.4873 66.1392C79.4818 66.274 79.4511 66.4063 79.397 66.5285C79.343 66.6508 79.2665 66.7606 79.1721 66.8518C79.0777 66.943 78.9672 67.0137 78.8468 67.0599Z" fill="#FFC700"/>
<path d="M80.2537 71.9575L49.1431 83.8963C48.9 83.9896 48.6317 83.9774 48.3972 83.8623C48.1627 83.7473 47.9812 83.5389 47.8926 83.283C47.804 83.027 47.8156 82.7445 47.9248 82.4976C48.0341 82.2506 48.232 82.0595 48.4751 81.9662L79.5856 70.0274C79.706 69.9812 79.8338 69.9605 79.9618 69.9663C80.0898 69.9721 80.2154 70.0044 80.3315 70.0614C80.4476 70.1183 80.552 70.1988 80.6386 70.2982C80.7251 70.3976 80.7923 70.514 80.8361 70.6408C80.88 70.7675 80.8997 70.9021 80.8942 71.0368C80.8887 71.1716 80.858 71.3039 80.8039 71.4262C80.7498 71.5484 80.6734 71.6583 80.579 71.7495C80.4846 71.8406 80.374 71.9113 80.2536 71.9575H80.2537Z" fill="#FFC700"/>
<path d="M178.498 84.7649L161.442 127.646C160.714 129.46 159.336 130.902 157.606 131.658C155.876 132.415 153.932 132.427 152.194 131.691C151.294 131.31 150.478 130.741 149.795 130.018C149.112 129.296 148.576 128.434 148.22 127.487C147.864 126.539 147.696 125.526 147.725 124.507C147.754 123.489 147.98 122.488 148.39 121.565L167.407 77.5925L177.89 50.3616C176.984 49.4124 176.378 48.1932 176.155 46.8697C175.932 45.5462 176.102 44.1825 176.642 42.9639C177.181 41.7453 178.065 40.7309 179.173 40.0585C180.281 39.3861 181.559 39.0884 182.834 39.2056C184.108 39.3229 185.318 39.8496 186.297 40.714C187.277 41.5785 187.98 42.7389 188.31 44.0375C188.64 45.3362 188.582 46.7101 188.143 47.9727C187.704 49.2353 186.905 50.3253 185.856 51.0946L178.498 84.7649Z" fill="#FFB6B6"/>
</svg>
