<svg width="40" height="63" viewBox="0 0 40 63" fill="none" xmlns="http://www.w3.org/2000/svg">
<path d="M8.74838 10.3518H8.7395L8.73061 10.352C8.72296 10.3521 8.71535 10.3507 8.70827 10.3478C8.70118 10.3449 8.69477 10.3406 8.68942 10.3351C8.68408 10.3296 8.67991 10.3231 8.67717 10.3159C8.67474 10.3096 8.67349 10.3029 8.67346 10.2961C8.87066 6.827 10.3669 4.56729 12.414 3.14447C14.5031 1.69249 17.2421 1.06396 19.9293 1.06396C22.8834 1.06396 25.6335 1.83785 27.6186 3.33131C29.5715 4.80058 30.8411 7.00337 30.8411 10.0506C30.8411 14.3371 28.3937 16.3629 25.6922 18.4167L25.6063 18.4819C24.0487 19.6631 22.8202 20.5948 22.018 21.6546C21.1366 22.8191 20.7965 24.0839 20.7965 25.8349V26.3028C20.7965 26.3331 20.7845 26.3621 20.7631 26.3835C20.7417 26.4049 20.7127 26.4169 20.6824 26.4169H17.0683H17.0682C17.0383 26.4169 17.0095 26.4051 16.9882 26.3841C16.967 26.3633 16.9548 26.3349 16.9541 26.3052C16.9541 26.305 16.9541 26.3048 16.9541 26.3046L16.9408 25.3398L16.9406 25.3262L16.9401 25.3127C16.7918 21.6949 18.8181 19.4264 21.7337 17.3079L21.7402 17.3032L21.7465 17.2984C23.0375 16.3286 24.2232 15.433 25.0626 14.3904C25.947 13.2921 26.4462 12.0396 26.4462 10.3893C26.4462 8.26617 25.6223 6.66408 24.2789 5.61886C22.9716 4.60167 21.2686 4.18429 19.5906 4.18429C17.5977 4.18429 15.952 4.78268 14.7418 5.87131C13.5371 6.95503 12.8461 8.45051 12.6195 10.1018L12.6195 10.1018L12.6188 10.1075C12.6079 10.1902 12.5689 10.2605 12.5235 10.3043C12.482 10.3444 12.4486 10.3518 12.4249 10.3518H8.74838ZM19.1138 39.064C16.9796 39.064 15.6129 37.6796 15.6129 35.9329C15.6129 34.0963 16.9854 32.744 19.1093 32.744C20.2537 32.744 21.1474 33.1063 21.7442 33.6532C22.3348 34.1945 22.6949 34.9696 22.6949 35.9329C22.6949 37.6721 21.3631 39.064 19.1138 39.064Z" stroke="white" stroke-width="2"/>
<path d="M15.3592 59L14.2412 56.127H10.5622L9.45716 59H8.27416L11.9012 49.679H12.9542L16.5682 59H15.3592ZM12.8502 52.279C12.8242 52.2097 12.7808 52.084 12.7202 51.902C12.6595 51.72 12.5988 51.5337 12.5382 51.343C12.4862 51.1437 12.4428 50.992 12.4082 50.888C12.3648 51.0613 12.3172 51.239 12.2652 51.421C12.2218 51.5943 12.1742 51.7547 12.1222 51.902C12.0788 52.0493 12.0398 52.175 12.0052 52.279L10.9522 55.087H13.8902L12.8502 52.279ZM22.8429 56.517C22.8429 57.0717 22.7086 57.544 22.4399 57.934C22.1712 58.3153 21.7856 58.61 21.2829 58.818C20.7889 59.026 20.2039 59.13 19.5279 59.13C19.1812 59.13 18.8476 59.1127 18.5269 59.078C18.2149 59.0433 17.9289 58.9957 17.6689 58.935C17.4089 58.8657 17.1792 58.7833 16.9799 58.688V57.57C17.2919 57.7087 17.6776 57.8343 18.1369 57.947C18.6049 58.0597 19.0859 58.116 19.5799 58.116C20.0392 58.116 20.4249 58.0553 20.7369 57.934C21.0489 57.8127 21.2829 57.6393 21.4389 57.414C21.5949 57.1887 21.6729 56.9243 21.6729 56.621C21.6729 56.3177 21.6079 56.062 21.4779 55.854C21.3479 55.646 21.1226 55.4553 20.8019 55.282C20.4899 55.1 20.0522 54.9093 19.4889 54.71C19.0902 54.5627 18.7392 54.4067 18.4359 54.242C18.1412 54.0687 17.8942 53.8737 17.6949 53.657C17.4956 53.4403 17.3439 53.1933 17.2399 52.916C17.1446 52.6387 17.0969 52.318 17.0969 51.954C17.0969 51.46 17.2226 51.0397 17.4739 50.693C17.7252 50.3377 18.0719 50.0647 18.5139 49.874C18.9646 49.6833 19.4802 49.588 20.0609 49.588C20.5722 49.588 21.0402 49.6357 21.4649 49.731C21.8896 49.8263 22.2752 49.952 22.6219 50.108L22.2579 51.109C21.9372 50.9703 21.5862 50.8533 21.2049 50.758C20.8322 50.6627 20.4422 50.615 20.0349 50.615C19.6449 50.615 19.3199 50.6713 19.0599 50.784C18.7999 50.8967 18.6049 51.057 18.4749 51.265C18.3449 51.4643 18.2799 51.6983 18.2799 51.967C18.2799 52.279 18.3449 52.539 18.4749 52.747C18.6049 52.955 18.8172 53.1413 19.1119 53.306C19.4066 53.4707 19.8052 53.6483 20.3079 53.839C20.8539 54.0383 21.3132 54.255 21.6859 54.489C22.0672 54.7143 22.3532 54.9873 22.5439 55.308C22.7432 55.6287 22.8429 56.0317 22.8429 56.517ZM31.2387 59H29.8607L26.5717 54.567L25.6227 55.399V59H24.4527V49.718H25.6227V54.294C25.8827 53.9993 26.147 53.7047 26.4157 53.41C26.6843 53.1153 26.953 52.8207 27.2217 52.526L29.7307 49.718H31.0957L27.4167 53.761L31.2387 59Z" fill="#FFFBF7"/>
</svg>
