<svg width="41" height="61" viewBox="0 0 41 61" fill="none" xmlns="http://www.w3.org/2000/svg">
<path d="M10.0163 57H8.84633V52.671H4.08833V57H2.91833V47.718H4.08833V51.644H8.84633V47.718H10.0163V57ZM20.3931 52.346C20.3931 53.0653 20.3021 53.7197 20.1201 54.309C19.9381 54.8897 19.6651 55.3923 19.3011 55.817C18.9457 56.2417 18.4994 56.5667 17.9621 56.792C17.4334 57.0173 16.8181 57.13 16.1161 57.13C15.3881 57.13 14.7554 57.0173 14.2181 56.792C13.6807 56.558 13.2344 56.233 12.8791 55.817C12.5237 55.3923 12.2594 54.8853 12.0861 54.296C11.9127 53.7067 11.8261 53.0523 11.8261 52.333C11.8261 51.3797 11.9821 50.5477 12.2941 49.837C12.6061 49.1263 13.0784 48.5717 13.7111 48.173C14.3524 47.7743 15.1584 47.575 16.1291 47.575C17.0564 47.575 17.8364 47.7743 18.4691 48.173C19.1017 48.563 19.5784 49.1177 19.8991 49.837C20.2284 50.5477 20.3931 51.384 20.3931 52.346ZM13.0611 52.346C13.0611 53.126 13.1694 53.7977 13.3861 54.361C13.6027 54.9243 13.9364 55.3577 14.3871 55.661C14.8464 55.9643 15.4227 56.116 16.1161 56.116C16.8181 56.116 17.3901 55.9643 17.8321 55.661C18.2827 55.3577 18.6164 54.9243 18.8331 54.361C19.0497 53.7977 19.1581 53.126 19.1581 52.346C19.1581 51.176 18.9154 50.2617 18.4301 49.603C17.9447 48.9357 17.1777 48.602 16.1291 48.602C15.4271 48.602 14.8464 48.7537 14.3871 49.057C13.9364 49.3517 13.6027 49.7807 13.3861 50.344C13.1694 50.8987 13.0611 51.566 13.0611 52.346ZM26.2853 57L23.2303 48.862H23.1783C23.1957 49.0353 23.2087 49.2563 23.2173 49.525C23.2347 49.7937 23.2477 50.0883 23.2563 50.409C23.265 50.721 23.2693 51.0417 23.2693 51.371V57H22.1903V47.718H23.9193L26.7793 55.323H26.8313L29.7433 47.718H31.4593V57H30.3023V51.293C30.3023 50.9897 30.3067 50.6907 30.3153 50.396C30.324 50.0927 30.337 49.811 30.3543 49.551C30.3717 49.2823 30.3847 49.057 30.3933 48.875H30.3413L27.2473 57H26.2853ZM38.9113 57H33.7243V47.718H38.9113V48.745H34.8943V51.644H38.6773V52.658H34.8943V55.973H38.9113V57Z" fill="#FFFBF7"/>
<path d="M38.7618 23.5413V30.4495L21.2635 38.7424V31.8331L38.7618 23.5413Z" stroke="white" stroke-width="2"/>
<path d="M21.2635 1.90354L36.2781 9.02052L28.9917 12.4751L21.2635 8.8125V1.90354Z" fill="white" stroke="white" stroke-width="2"/>
<path d="M19.2632 27.4409L13.6855 24.7981V17.8867L19.2632 20.5326V27.4409Z" fill="#FFFBF7" stroke="white" stroke-width="2"/>
<path d="M21.2635 27.4407V20.5327L38.7618 12.2363V19.1478L21.2635 27.4407Z" stroke="white" stroke-width="2"/>
<path d="M19.2632 8.81237L11.4886 12.4952L4.24618 9.02061L19.2632 1.90344V8.81237Z" stroke="white" stroke-width="2"/>
<path d="M9.38569 26.5209V27.1537L9.95758 27.4246L19.2632 31.8329V38.7422L1.76172 30.4492V12.2317L9.38569 15.8439V26.5209Z" fill="white" stroke="white" stroke-width="2"/>
</svg>
