<svg width="42" height="61" viewBox="0 0 42 61" fill="none" xmlns="http://www.w3.org/2000/svg">
<path d="M11.0163 57H9.84633V52.671H5.08833V57H3.91833V47.718H5.08833V51.644H9.84633V47.718H11.0163V57ZM21.3931 52.346C21.3931 53.0653 21.3021 53.7197 21.1201 54.309C20.9381 54.8897 20.6651 55.3923 20.3011 55.817C19.9457 56.2417 19.4994 56.5667 18.9621 56.792C18.4334 57.0173 17.8181 57.13 17.1161 57.13C16.3881 57.13 15.7554 57.0173 15.2181 56.792C14.6807 56.558 14.2344 56.233 13.8791 55.817C13.5237 55.3923 13.2594 54.8853 13.0861 54.296C12.9127 53.7067 12.8261 53.0523 12.8261 52.333C12.8261 51.3797 12.9821 50.5477 13.2941 49.837C13.6061 49.1263 14.0784 48.5717 14.7111 48.173C15.3524 47.7743 16.1584 47.575 17.1291 47.575C18.0564 47.575 18.8364 47.7743 19.4691 48.173C20.1017 48.563 20.5784 49.1177 20.8991 49.837C21.2284 50.5477 21.3931 51.384 21.3931 52.346ZM14.0611 52.346C14.0611 53.126 14.1694 53.7977 14.3861 54.361C14.6027 54.9243 14.9364 55.3577 15.3871 55.661C15.8464 55.9643 16.4227 56.116 17.1161 56.116C17.8181 56.116 18.3901 55.9643 18.8321 55.661C19.2827 55.3577 19.6164 54.9243 19.8331 54.361C20.0497 53.7977 20.1581 53.126 20.1581 52.346C20.1581 51.176 19.9154 50.2617 19.4301 49.603C18.9447 48.9357 18.1777 48.602 17.1291 48.602C16.4271 48.602 15.8464 48.7537 15.3871 49.057C14.9364 49.3517 14.6027 49.7807 14.3861 50.344C14.1694 50.8987 14.0611 51.566 14.0611 52.346ZM27.2853 57L24.2303 48.862H24.1783C24.1957 49.0353 24.2087 49.2563 24.2173 49.525C24.2347 49.7937 24.2477 50.0883 24.2563 50.409C24.265 50.721 24.2693 51.0417 24.2693 51.371V57H23.1903V47.718H24.9193L27.7793 55.323H27.8313L30.7433 47.718H32.4593V57H31.3023V51.293C31.3023 50.9897 31.3067 50.6907 31.3153 50.396C31.324 50.0927 31.337 49.811 31.3543 49.551C31.3717 49.2823 31.3847 49.057 31.3933 48.875H31.3413L28.2473 57H27.2853ZM39.9113 57H34.7243V47.718H39.9113V48.745H35.8943V51.644H39.6773V52.658H35.8943V55.973H39.9113V57Z" fill="#FFFBF7"/>
<path d="M38.7618 23.5413V30.4495L21.2635 38.7424V31.8331L38.7618 23.5413Z" fill="white" stroke="white" stroke-width="2"/>
<path d="M21.2635 1.90354L36.2781 9.02052L28.9917 12.4751L21.2635 8.8125V1.90354Z" fill="white" stroke="white" stroke-width="2"/>
<path d="M19.2632 27.4409L13.6855 24.7981V17.8867L19.2632 20.5326V27.4409Z" fill="#FFFBF7" stroke="white" stroke-width="2"/>
<path d="M21.2635 27.4407V20.5327L38.7618 12.2363V19.1478L21.2635 27.4407Z" fill="white" stroke="white" stroke-width="2"/>
<path d="M19.2632 8.81237L11.4886 12.4952L4.24618 9.02061L19.2632 1.90344V8.81237Z" fill="white" stroke="white" stroke-width="2"/>
<path d="M9.38569 26.5209V27.1537L9.95758 27.4246L19.2632 31.8329V38.7422L1.76172 30.4492V12.2317L9.38569 15.8439V26.5209Z" fill="white" stroke="white" stroke-width="2"/>
</svg>
