<svg width="40" height="61" viewBox="0 0 40 61" fill="none" xmlns="http://www.w3.org/2000/svg">
<path d="M5.94493 59.47C5.73693 59.47 5.55493 59.4527 5.39893 59.418C5.24293 59.392 5.10427 59.353 4.98293 59.301V58.313C5.1216 58.3477 5.26893 58.378 5.42493 58.404C5.58093 58.43 5.7456 58.443 5.91893 58.443C6.1356 58.443 6.33927 58.3997 6.52993 58.313C6.72927 58.2263 6.8896 58.0747 7.01093 57.858C7.13227 57.6413 7.19293 57.338 7.19293 56.948V47.718H8.36293V56.857C8.36293 57.455 8.26327 57.9447 8.06393 58.326C7.8646 58.716 7.58293 59.002 7.21893 59.184C6.85493 59.3747 6.43027 59.47 5.94493 59.47ZM18.6516 52.346C18.6516 53.0653 18.5606 53.7197 18.3786 54.309C18.1966 54.8897 17.9236 55.3923 17.5596 55.817C17.2043 56.2417 16.758 56.5667 16.2206 56.792C15.692 57.0173 15.0766 57.13 14.3746 57.13C13.6466 57.13 13.014 57.0173 12.4766 56.792C11.9393 56.558 11.493 56.233 11.1376 55.817C10.7823 55.3923 10.518 54.8853 10.3446 54.296C10.1713 53.7067 10.0846 53.0523 10.0846 52.333C10.0846 51.3797 10.2406 50.5477 10.5526 49.837C10.8646 49.1263 11.337 48.5717 11.9696 48.173C12.611 47.7743 13.417 47.575 14.3876 47.575C15.315 47.575 16.095 47.7743 16.7276 48.173C17.3603 48.563 17.837 49.1177 18.1576 49.837C18.487 50.5477 18.6516 51.384 18.6516 52.346ZM11.3196 52.346C11.3196 53.126 11.428 53.7977 11.6446 54.361C11.8613 54.9243 12.195 55.3577 12.6456 55.661C13.105 55.9643 13.6813 56.116 14.3746 56.116C15.0766 56.116 15.6486 55.9643 16.0906 55.661C16.5413 55.3577 16.875 54.9243 17.0916 54.361C17.3083 53.7977 17.4166 53.126 17.4166 52.346C17.4166 51.176 17.174 50.2617 16.6886 49.603C16.2033 48.9357 15.4363 48.602 14.3876 48.602C13.6856 48.602 13.105 48.7537 12.6456 49.057C12.195 49.3517 11.8613 49.7807 11.6446 50.344C11.428 50.8987 11.3196 51.566 11.3196 52.346ZM23.1009 47.718C23.8722 47.718 24.5179 47.7917 25.0379 47.939C25.5665 48.0863 25.9609 48.329 26.2209 48.667C26.4895 49.005 26.6239 49.4557 26.6239 50.019C26.6239 50.383 26.5545 50.708 26.4159 50.994C26.2859 51.2713 26.0865 51.5053 25.8179 51.696C25.5579 51.878 25.2372 52.0037 24.8559 52.073V52.138C25.2459 52.1987 25.5969 52.3113 25.9089 52.476C26.2295 52.6407 26.4809 52.8747 26.6629 53.178C26.8449 53.4813 26.9359 53.8757 26.9359 54.361C26.9359 54.9243 26.8059 55.4053 26.5459 55.804C26.2859 56.194 25.9132 56.493 25.4279 56.701C24.9512 56.9003 24.3792 57 23.7119 57H20.4489V47.718H23.1009ZM23.3349 51.67C24.1322 51.67 24.6782 51.5443 24.9729 51.293C25.2675 51.033 25.4149 50.6517 25.4149 50.149C25.4149 49.6377 25.2329 49.2737 24.8689 49.057C24.5135 48.8317 23.9415 48.719 23.1529 48.719H21.6189V51.67H23.3349ZM21.6189 52.645V56.012H23.4909C24.3142 56.012 24.8862 55.8517 25.2069 55.531C25.5275 55.2103 25.6879 54.79 25.6879 54.27C25.6879 53.9407 25.6142 53.6547 25.4669 53.412C25.3282 53.1693 25.0899 52.983 24.7519 52.853C24.4225 52.7143 23.9719 52.645 23.3999 52.645H21.6189ZM33.909 54.517C33.909 55.0717 33.7746 55.544 33.506 55.934C33.2373 56.3153 32.8516 56.61 32.349 56.818C31.855 57.026 31.27 57.13 30.5939 57.13C30.2473 57.13 29.9136 57.1127 29.5929 57.078C29.2809 57.0433 28.9949 56.9957 28.7349 56.935C28.4749 56.8657 28.2453 56.7833 28.0459 56.688V55.57C28.3579 55.7087 28.7436 55.8343 29.2029 55.947C29.6709 56.0597 30.1519 56.116 30.646 56.116C31.1053 56.116 31.491 56.0553 31.8029 55.934C32.1149 55.8127 32.349 55.6393 32.505 55.414C32.661 55.1887 32.739 54.9243 32.739 54.621C32.739 54.3177 32.674 54.062 32.544 53.854C32.414 53.646 32.1886 53.4553 31.868 53.282C31.556 53.1 31.1183 52.9093 30.555 52.71C30.1563 52.5627 29.8053 52.4067 29.5019 52.242C29.2073 52.0687 28.9603 51.8737 28.7609 51.657C28.5616 51.4403 28.4099 51.1933 28.3059 50.916C28.2106 50.6387 28.1629 50.318 28.1629 49.954C28.1629 49.46 28.2886 49.0397 28.5399 48.693C28.7913 48.3377 29.1379 48.0647 29.58 47.874C30.0306 47.6833 30.5463 47.588 31.127 47.588C31.6383 47.588 32.1063 47.6357 32.531 47.731C32.9556 47.8263 33.3413 47.952 33.688 48.108L33.324 49.109C33.0033 48.9703 32.6523 48.8533 32.271 48.758C31.8983 48.6627 31.5083 48.615 31.101 48.615C30.7109 48.615 30.3859 48.6713 30.1259 48.784C29.8659 48.8967 29.6709 49.057 29.5409 49.265C29.4109 49.4643 29.3459 49.6983 29.3459 49.967C29.3459 50.279 29.4109 50.539 29.5409 50.747C29.6709 50.955 29.8833 51.1413 30.1779 51.306C30.4726 51.4707 30.8713 51.6483 31.3739 51.839C31.9199 52.0383 32.3793 52.255 32.752 52.489C33.1333 52.7143 33.4193 52.9873 33.61 53.308C33.8093 53.6287 33.909 54.0317 33.909 54.517Z" fill="#FFFBF7"/>
<path d="M27.0573 8.48502V9.48502H28.0573H35.8573C37.3988 9.48502 38.7573 10.8375 38.7573 12.6955V35.8534C38.7573 37.7115 37.3988 39.064 35.8573 39.064H4.65732C3.11598 39.064 1.75752 37.7117 1.75732 35.8538C1.75732 35.8537 1.75732 35.8536 1.75732 35.8534L1.77682 12.6964V12.6955C1.77682 10.8307 3.12213 9.48502 4.65732 9.48502H12.4573H13.4573V8.48502V4.27449C13.4573 2.41641 14.8159 1.06396 16.3573 1.06396H24.1573C25.6988 1.06396 27.0573 2.41641 27.0573 4.27449V8.48502ZM24.1573 9.48502H25.1573V8.48502V4.27449V3.27449H24.1573H16.3573H15.3573V4.27449V8.48502V9.48502H16.3573H24.1573Z" fill="white" stroke="white" stroke-width="2"/>
</svg>
