<svg width="40" height="63" viewBox="0 0 40 63" fill="none" xmlns="http://www.w3.org/2000/svg">
<path d="M5.67774 16.3229C5.67774 12.6098 7.19155 9.04889 9.88615 6.42338C12.5808 3.79787 16.2354 2.32288 20.0462 2.32288C23.8569 2.32288 27.5116 3.79787 30.2062 6.42338C32.9008 9.04889 34.4146 12.6098 34.4146 16.3229C34.4159 18.577 33.8564 20.7979 32.7839 22.7952C31.7115 24.7925 30.158 26.5067 28.2567 27.7909L27.1442 32.9229C26.9969 33.8688 26.5065 34.732 25.7619 35.3558C25.0174 35.9796 24.0681 36.3227 23.0861 36.3229H17.0062C16.0243 36.3227 15.0749 35.9796 14.3304 35.3558C13.5858 34.732 13.0955 33.8688 12.9482 32.9229L11.8356 27.8129C9.93368 26.5241 8.38018 24.8059 7.30784 22.8051C6.2355 20.8042 5.67621 18.5801 5.67774 16.3229Z" fill="white"/>
<path d="M15.9409 42.3229H24.1514M5.67774 16.3229C5.67774 12.6098 7.19155 9.04889 9.88615 6.42338C12.5808 3.79787 16.2354 2.32288 20.0462 2.32288C23.8569 2.32288 27.5116 3.79787 30.2062 6.42338C32.9008 9.04889 34.4146 12.6098 34.4146 16.3229C34.4159 18.577 33.8564 20.7979 32.7839 22.7952C31.7115 24.7925 30.158 26.5067 28.2567 27.7909L27.1442 32.9229C26.9969 33.8688 26.5065 34.732 25.7619 35.3558C25.0174 35.9796 24.0681 36.3227 23.0861 36.3229H17.0062C16.0243 36.3227 15.0749 35.9796 14.3304 35.3558C13.5858 34.732 13.0955 33.8688 12.9482 32.9229L11.8356 27.8129C9.93368 26.5241 8.38018 24.8059 7.30784 22.8051C6.2355 20.8042 5.67621 18.5801 5.67774 16.3229Z" stroke="white" stroke-width="3.5" stroke-linecap="round" stroke-linejoin="round"/>
<path d="M10.8945 59H9.5295L4.5635 51.291H4.5115C4.52016 51.447 4.52883 51.6203 4.5375 51.811C4.55483 52.0017 4.56783 52.2097 4.5765 52.435C4.58516 52.6517 4.59383 52.877 4.6025 53.111C4.61116 53.345 4.6155 53.579 4.6155 53.813V59H3.5365V49.718H4.8885L9.8415 57.401H9.8935C9.88483 57.297 9.87616 57.154 9.8675 56.972C9.85883 56.7813 9.85016 56.5733 9.8415 56.348C9.83283 56.114 9.82416 55.8757 9.8155 55.633C9.80683 55.3903 9.8025 55.165 9.8025 54.957V49.718H10.8945V59ZM18.3405 59H13.1535V49.718H18.3405V50.745H14.3235V53.644H18.1065V54.658H14.3235V57.973H18.3405V59ZM30.7771 49.718L28.3071 59H27.1241L25.3171 52.916C25.2651 52.734 25.2131 52.5477 25.1611 52.357C25.1091 52.1663 25.0614 51.9843 25.0181 51.811C24.9747 51.6377 24.9357 51.4903 24.9011 51.369C24.8751 51.239 24.8577 51.1437 24.8491 51.083C24.8404 51.1437 24.8231 51.239 24.7971 51.369C24.7797 51.4903 24.7494 51.6377 24.7061 51.811C24.6627 51.9843 24.6151 52.1707 24.5631 52.37C24.5197 52.5607 24.4677 52.7557 24.4071 52.955L22.6521 59H21.4691L19.0121 49.718H20.2341L21.6771 55.386C21.7291 55.5853 21.7767 55.7847 21.8201 55.984C21.8634 56.1747 21.9024 56.3653 21.9371 56.556C21.9804 56.738 22.0151 56.9157 22.0411 57.089C22.0671 57.2623 22.0931 57.4313 22.1191 57.596C22.1451 57.4227 22.1711 57.245 22.1971 57.063C22.2317 56.881 22.2707 56.6947 22.3141 56.504C22.3574 56.3047 22.4051 56.1053 22.4571 55.906C22.5091 55.7067 22.5611 55.5117 22.6131 55.321L24.2511 49.718H25.4601L27.1631 55.36C27.2238 55.5593 27.2801 55.763 27.3321 55.971C27.3841 56.1703 27.4318 56.3653 27.4751 56.556C27.5184 56.7467 27.5531 56.933 27.5791 57.115C27.6137 57.2883 27.6441 57.4487 27.6701 57.596C27.6961 57.3793 27.7308 57.154 27.7741 56.92C27.8174 56.6773 27.8694 56.426 27.9301 56.166C27.9908 55.906 28.0558 55.6417 28.1251 55.373L29.5551 49.718H30.7771ZM37.208 56.517C37.208 57.0717 37.0737 57.544 36.805 57.934C36.5364 58.3153 36.1507 58.61 35.648 58.818C35.154 59.026 34.569 59.13 33.893 59.13C33.5464 59.13 33.2127 59.1127 32.892 59.078C32.58 59.0433 32.294 58.9957 32.034 58.935C31.774 58.8657 31.5444 58.7833 31.345 58.688V57.57C31.657 57.7087 32.0427 57.8343 32.502 57.947C32.97 58.0597 33.451 58.116 33.945 58.116C34.4044 58.116 34.79 58.0553 35.102 57.934C35.414 57.8127 35.648 57.6393 35.804 57.414C35.96 57.1887 36.038 56.9243 36.038 56.621C36.038 56.3177 35.973 56.062 35.843 55.854C35.713 55.646 35.4877 55.4553 35.167 55.282C34.855 55.1 34.4174 54.9093 33.854 54.71C33.4554 54.5627 33.1044 54.4067 32.801 54.242C32.5064 54.0687 32.2594 53.8737 32.06 53.657C31.8607 53.4403 31.709 53.1933 31.605 52.916C31.5097 52.6387 31.462 52.318 31.462 51.954C31.462 51.46 31.5877 51.0397 31.839 50.693C32.0904 50.3377 32.437 50.0647 32.879 49.874C33.3297 49.6833 33.8454 49.588 34.426 49.588C34.9374 49.588 35.4054 49.6357 35.83 49.731C36.2547 49.8263 36.6404 49.952 36.987 50.108L36.623 51.109C36.3024 50.9703 35.9514 50.8533 35.57 50.758C35.1974 50.6627 34.8074 50.615 34.4 50.615C34.01 50.615 33.685 50.6713 33.425 50.784C33.165 50.8967 32.97 51.057 32.84 51.265C32.71 51.4643 32.645 51.6983 32.645 51.967C32.645 52.279 32.71 52.539 32.84 52.747C32.97 52.955 33.1824 53.1413 33.477 53.306C33.7717 53.4707 34.1704 53.6483 34.673 53.839C35.219 54.0383 35.6784 54.255 36.051 54.489C36.4324 54.7143 36.7184 54.9873 36.909 55.308C37.1084 55.6287 37.208 56.0317 37.208 56.517Z" fill="#FFFBF7"/>
</svg>
