<svg width="46" height="58" viewBox="0 0 46 58" fill="none" xmlns="http://www.w3.org/2000/svg">
<path d="M3.24083 19.2098C5.24465 9.71226 13.6213 2.96396 23.044 2.96396C32.4637 2.96396 40.8404 9.71226 42.8472 19.2098C42.9267 19.5866 43.1546 19.9169 43.4808 20.1279C43.807 20.3389 44.2048 20.4134 44.5866 20.335C44.9684 20.2565 45.303 20.0316 45.5168 19.7096C45.7306 19.3876 45.8061 18.995 45.7266 18.6182C43.4436 7.81566 33.8946 0.0639648 23.044 0.0639648C12.1934 0.0639648 2.64438 7.81566 0.361434 18.6182C0.281951 18.995 0.357405 19.3876 0.571197 19.7096C0.784989 20.0316 1.11961 20.2565 1.50144 20.335C1.88327 20.4134 2.28104 20.3389 2.60724 20.1279C2.93344 19.9169 3.16134 19.5866 3.24083 19.2098V19.2098Z" fill="#FFFBF7"/>
<path d="M23.0146 9.76392C25.481 9.76392 27.8437 10.7311 29.5837 12.4485C31.3233 14.1655 32.2982 16.4914 32.2982 18.9139C32.2982 21.3364 31.3233 23.6623 29.5837 25.3793C27.8437 27.0968 25.481 28.0639 23.0146 28.0639C20.5483 28.0639 18.1856 27.0968 16.4455 25.3793C14.7059 23.6623 13.7311 21.3364 13.7311 18.9139C13.7311 16.4914 14.7059 14.1655 16.4455 12.4485C18.1856 10.7311 20.5483 9.76392 23.0146 9.76392Z" fill="white" stroke="white" stroke-width="2"/>
<path d="M10.8566 51.517C10.8566 52.0717 10.7222 52.544 10.4536 52.934C10.1849 53.3153 9.79922 53.61 9.29655 53.818C8.80255 54.026 8.21755 54.13 7.54155 54.13C7.19488 54.13 6.86122 54.1127 6.54055 54.078C6.22855 54.0433 5.94255 53.9957 5.68255 53.935C5.42255 53.8657 5.19288 53.7833 4.99355 53.688V52.57C5.30555 52.7087 5.69122 52.8343 6.15055 52.947C6.61855 53.0597 7.09955 53.116 7.59355 53.116C8.05288 53.116 8.43855 53.0553 8.75055 52.934C9.06255 52.8127 9.29655 52.6393 9.45255 52.414C9.60855 52.1887 9.68655 51.9243 9.68655 51.621C9.68655 51.3177 9.62155 51.062 9.49155 50.854C9.36155 50.646 9.13622 50.4553 8.81555 50.282C8.50355 50.1 8.06588 49.9093 7.50255 49.71C7.10388 49.5627 6.75288 49.4067 6.44955 49.242C6.15488 49.0687 5.90788 48.8737 5.70855 48.657C5.50922 48.4403 5.35755 48.1933 5.25355 47.916C5.15822 47.6387 5.11055 47.318 5.11055 46.954C5.11055 46.46 5.23622 46.0397 5.48755 45.693C5.73888 45.3377 6.08555 45.0647 6.52755 44.874C6.97822 44.6833 7.49388 44.588 8.07455 44.588C8.58588 44.588 9.05388 44.6357 9.47855 44.731C9.90322 44.8263 10.2889 44.952 10.6356 45.108L10.2716 46.109C9.95088 45.9703 9.59988 45.8533 9.21855 45.758C8.84588 45.6627 8.45588 45.615 8.04855 45.615C7.65855 45.615 7.33355 45.6713 7.07355 45.784C6.81355 45.8967 6.61855 46.057 6.48855 46.265C6.35855 46.4643 6.29355 46.6983 6.29355 46.967C6.29355 47.279 6.35855 47.539 6.48855 47.747C6.61855 47.955 6.83088 48.1413 7.12555 48.306C7.42022 48.4707 7.81888 48.6483 8.32155 48.839C8.86755 49.0383 9.32688 49.255 9.69955 49.489C10.0809 49.7143 10.3669 49.9873 10.5576 50.308C10.7569 50.6287 10.8566 51.0317 10.8566 51.517ZM19.5643 54H18.3943V49.671H13.6363V54H12.4663V44.718H13.6363V48.644H18.3943V44.718H19.5643V54ZM29.9411 49.346C29.9411 50.0653 29.8501 50.7197 29.6681 51.309C29.4861 51.8897 29.2131 52.3923 28.8491 52.817C28.4937 53.2417 28.0474 53.5667 27.5101 53.792C26.9814 54.0173 26.3661 54.13 25.6641 54.13C24.9361 54.13 24.3034 54.0173 23.7661 53.792C23.2287 53.558 22.7824 53.233 22.4271 52.817C22.0717 52.3923 21.8074 51.8853 21.6341 51.296C21.4607 50.7067 21.3741 50.0523 21.3741 49.333C21.3741 48.3797 21.5301 47.5477 21.8421 46.837C22.1541 46.1263 22.6264 45.5717 23.2591 45.173C23.9004 44.7743 24.7064 44.575 25.6771 44.575C26.6044 44.575 27.3844 44.7743 28.0171 45.173C28.6497 45.563 29.1264 46.1177 29.4471 46.837C29.7764 47.5477 29.9411 48.384 29.9411 49.346ZM22.6091 49.346C22.6091 50.126 22.7174 50.7977 22.9341 51.361C23.1507 51.9243 23.4844 52.3577 23.9351 52.661C24.3944 52.9643 24.9707 53.116 25.6641 53.116C26.3661 53.116 26.9381 52.9643 27.3801 52.661C27.8307 52.3577 28.1644 51.9243 28.3811 51.361C28.5977 50.7977 28.7061 50.126 28.7061 49.346C28.7061 48.176 28.4634 47.2617 27.9781 46.603C27.4927 45.9357 26.7257 45.602 25.6771 45.602C24.9751 45.602 24.3944 45.7537 23.9351 46.057C23.4844 46.3517 23.1507 46.7807 22.9341 47.344C22.7174 47.8987 22.6091 48.566 22.6091 49.346ZM42.2714 44.718L39.8014 54H38.6184L36.8114 47.916C36.7594 47.734 36.7074 47.5477 36.6554 47.357C36.6034 47.1663 36.5557 46.9843 36.5124 46.811C36.469 46.6377 36.43 46.4903 36.3954 46.369C36.3694 46.239 36.352 46.1437 36.3434 46.083C36.3347 46.1437 36.3174 46.239 36.2914 46.369C36.274 46.4903 36.2437 46.6377 36.2004 46.811C36.157 46.9843 36.1094 47.1707 36.0574 47.37C36.014 47.5607 35.962 47.7557 35.9014 47.955L34.1464 54H32.9634L30.5064 44.718H31.7284L33.1714 50.386C33.2234 50.5853 33.271 50.7847 33.3144 50.984C33.3577 51.1747 33.3967 51.3653 33.4314 51.556C33.4747 51.738 33.5094 51.9157 33.5354 52.089C33.5614 52.2623 33.5874 52.4313 33.6134 52.596C33.6394 52.4227 33.6654 52.245 33.6914 52.063C33.726 51.881 33.765 51.6947 33.8084 51.504C33.8517 51.3047 33.8994 51.1053 33.9514 50.906C34.0034 50.7067 34.0554 50.5117 34.1074 50.321L35.7454 44.718H36.9544L38.6574 50.36C38.718 50.5593 38.7744 50.763 38.8264 50.971C38.8784 51.1703 38.926 51.3653 38.9694 51.556C39.0127 51.7467 39.0474 51.933 39.0734 52.115C39.108 52.2883 39.1384 52.4487 39.1644 52.596C39.1904 52.3793 39.225 52.154 39.2684 51.92C39.3117 51.6773 39.3637 51.426 39.4244 51.166C39.485 50.906 39.55 50.6417 39.6194 50.373L41.0494 44.718H42.2714Z" fill="#FFFBF7"/>
</svg>
